# xmcd
#
# Track frame offsets: 
#        150
#        11513
#        28553
#        49183
#        72075
#        96493
#        110727
#        127345
#        146415
#        161441
#        181841
#
# Disc length: 2780 seconds
#
# Revision: 0
# Processed by: cddbd v1.5.2PL0 Copyright (c) Steve Scherf et al.
# Submitted via: ExactAudioCopy v1.0b4
#
DISCID=970ada0b
DTITLE=Tas Cru - Simmered and Stewed
DYEAR=2016
DGENRE=Blues
TTITLE0=Dat Maybe
TTITLE1=Grizzle N' Bone
TTITLE2=Feel I'm Falling
TTITLE3=Time And Time
TTITLE4=Road To My Obsession
TTITLE5=Biscuit
TTITLE6=Cover My Love
TTITLE7=Woman Won't You Love Me
TTITLE8=Just Let It Happen
TTITLE9=Tired Of Bluesmen Cryin'
TTITLE10=Higher And Higher
EXTD=
EXTT0=
EXTT1=
EXTT2=
EXTT3=
EXTT4=
EXTT5=
EXTT6=
EXTT7=
EXTT8=
EXTT9=
EXTT10=
PLAYORDER=
